<svg xmlns="http://www.w3.org/2000/svg" viewBox="0 0 209.66 69.44"><defs><style>.cls-1{fill:#c8a177;}.cls-2{fill:#9c8cbe;}.cls-3{fill:#eba4c3;}.cls-4{fill:#5970a5;}.cls-5{fill:#4f455a;}.cls-6{fill:#fff;stroke:#4f455a;stroke-miterlimit:10;stroke-width:1.21px;}</style></defs><title>horizontal_color</title><g id="レイヤー_2" data-name="レイヤー 2"><g id="レイヤー_1-2" data-name="レイヤー 1"><path class="cls-1" d="M47.31,56.87c0-.6,0-1,0-1.51q0-19.76,0-39.5c0-1.69-.19-1.12.85-2.51.64-.86,1.3-1.71,2-2.57.14-.17.29-.32.42-.46.1,0,.15,0,.17.07a.13.13,0,0,1,0,.1q0,24.72,0,49.44a1.65,1.65,0,0,1-.09.33,1.22,1.22,0,0,1-.33.1H12.84a1.53,1.53,0,0,1-.34-.1,1.21,1.21,0,0,1,.1-.32c.65-.86,1.31-1.72,2-2.58a1,1,0,0,1,1-.46c.3,0,.61,0,.92,0H45.8Z"/><path class="cls-2" d="M40.35,65.09,41.45,62A29.59,29.59,0,0,1,45,62a3.43,3.43,0,0,1-.09.72c-.72,2.11-1.46,4.22-2.2,6.33,0,.14-.12.27-.19.42a2.09,2.09,0,0,1-1.11-.25l-17.23-6-2.4-.83a7.83,7.83,0,0,1-.71-.36c.39,0,.52-.07.65-.07,2.93,0,5.85,0,8.78,0a4.67,4.67,0,0,1,1.57.31l6.87,2.39C39.35,64.78,39.79,64.91,40.35,65.09Z"/><path class="cls-2" d="M52.38,40.3v-.92q0-4,0-8a5.26,5.26,0,0,1,.29-1.8q1.73-4.89,3.4-9.8a2.61,2.61,0,0,1,1.15-1.5c1-.63,2.06-1.35,3.08-2,.19-.12.39-.22.6-.34,0,.13.09.22.07.27L52.77,40a2.71,2.71,0,0,1-.21.37Z"/><path class="cls-2" d="M52.43,14.46a33.17,33.17,0,0,1,0-3.6,26.57,26.57,0,0,1,3.23,1c1,.34,2,.71,3.15,1.1a3.31,3.31,0,0,1-.41.42c-1,.69-2,1.37-3.07,2.05Z"/><path class="cls-2" d="M30.56,21.43c-5.15.09-6.26,2.76-6.28,4.3l-.05,2.9,5.92-.1v.6l-8.82.14c-1.95,0-4.22,1.61-4.29,6s2.14,5.87,4.09,5.84l3.5-.06.06-3.54a2.46,2.46,0,0,1,2.4-2.41l7.1-.12a1.8,1.8,0,0,0,1.8-1.8l.13-7.63C36.14,23.46,34.23,21.37,30.56,21.43ZM27.87,26a.83.83,0,1,1,.83-.83A.83.83,0,0,1,27.87,26Z"/><path class="cls-3" d="M40.46,29.76l-3.5.06-.06,3.55a2.47,2.47,0,0,1-2.4,2.41l-7.1.11a1.81,1.81,0,0,0-1.8,1.81l-.13,7.63c0,2.07,1.88,4.17,5.55,4.11,5.15-.09,6.26-2.76,6.28-4.3l.05-2.91-5.92.1v-.59l8.82-.14c2,0,4.22-1.61,4.3-6S42.41,29.73,40.46,29.76Zm-6.75,15.1a.83.83,0,1,1-.82.82A.82.82,0,0,1,33.71,44.86Z"/><path class="cls-4" d="M13.56,12.58c0,.6,0,1.06,0,1.51l.09,39.5c0,1.69.19,1.12-.85,2.51-.64.87-1.3,1.72-1.95,2.57-.14.18-.29.33-.42.47-.1,0-.15,0-.17-.07a.13.13,0,0,1,0-.1q-.07-24.72-.14-49.43a1.56,1.56,0,0,1,.09-.34,1.12,1.12,0,0,1,.33-.1L48,9a1.53,1.53,0,0,1,.34.1,1.17,1.17,0,0,1-.1.33c-.65.86-1.31,1.72-1.94,2.58a1.07,1.07,0,0,1-1,.47c-.31,0-.62,0-.92,0l-29.34.07Z"/><path class="cls-3" d="M20.49,4.35,19.4,7.42a29.57,29.57,0,0,1-3.53.08A3.63,3.63,0,0,1,16,6.77Q17,3.61,18.14.45A4,4,0,0,1,18.33,0a2.07,2.07,0,0,1,1.11.25L36.69,6.2l2.4.82a7.83,7.83,0,0,1,.71.36c-.38,0-.52.07-.65.07l-8.78,0a4.43,4.43,0,0,1-1.57-.31L21.93,4.8C21.5,4.65,21.06,4.52,20.49,4.35Z"/><path class="cls-3" d="M8.53,29.17v.91c0,2.66,0,5.31,0,8a5.32,5.32,0,0,1-.29,1.81q-1.71,4.89-3.37,9.8a2.55,2.55,0,0,1-1.15,1.5c-1,.64-2,1.36-3.08,2-.19.12-.39.22-.59.34,0-.14-.1-.22-.08-.28Q4.06,41.37,8.14,29.49a3.59,3.59,0,0,1,.21-.38Z"/><path class="cls-3" d="M8.54,55a35.93,35.93,0,0,1,0,3.6,25.58,25.58,0,0,1-3.24-1c-1-.33-2-.7-3.14-1.09a2.75,2.75,0,0,1,.4-.42c1-.69,2-1.37,3.06-2.06Z"/><path class="cls-2" d="M140.28,52.63l.65-6.2H143a1.73,1.73,0,0,1,1.3.43,1.53,1.53,0,0,1,.34,1.26l-.09.79a1.79,1.79,0,0,1-.59,1.24,2.12,2.12,0,0,1-1.39.42h-1l-.22,2.06Zm1.39-2.91h.83a1,1,0,0,0,.69-.21,1.05,1.05,0,0,0,.28-.68l.06-.65a.68.68,0,0,0-.77-.9h-.83Z"/><path class="cls-2" d="M145.91,54.24l-.45,0-.51-.06.18-.83.42.07.33,0a.9.9,0,0,0,.67-.22,1.45,1.45,0,0,0,.36-.6l0-.08h-.67L145.54,48h1.08l.55,3.88L148.49,48h1.06l-1.74,4.86a2.25,2.25,0,0,1-.75,1.07A1.89,1.89,0,0,1,145.91,54.24Z"/><path class="cls-2" d="M152.36,52.7a1.24,1.24,0,0,1-1.4-1.53l.25-2.36h-.77l.08-.83h.78l.16-1.55h1.09L152.38,48h1.34l-.08.83H152.3l-.24,2.29a.77.77,0,0,0,.1.58.52.52,0,0,0,.43.18,1.13,1.13,0,0,0,.3,0,2,2,0,0,0,.37-.12l0,.82a2.79,2.79,0,0,1-.43.13A2.21,2.21,0,0,1,152.36,52.7Z"/><path class="cls-2" d="M154.78,52.63l.66-6.2h1.09l-.23,2.24h.19a1.37,1.37,0,0,1,1.26-.77,1,1,0,0,1,.84.4,1.59,1.59,0,0,1,.22,1.09l-.35,3.24h-1.09l.32-3.06a.94.94,0,0,0-.08-.59.45.45,0,0,0-.39-.2.91.91,0,0,0-.53.18,1.82,1.82,0,0,0-.48.48l-.33,3.19Z"/><path class="cls-2" d="M161.88,52.7a1.73,1.73,0,0,1-1.28-.44,1.49,1.49,0,0,1-.38-1.28l.14-1.33a1.9,1.9,0,0,1,.65-1.3,2.12,2.12,0,0,1,1.38-.45,1.75,1.75,0,0,1,1.29.45,1.47,1.47,0,0,1,.36,1.3L163.9,51a1.76,1.76,0,0,1-.63,1.28A2.12,2.12,0,0,1,161.88,52.7Zm.09-.83a.77.77,0,0,0,.59-.21,1.23,1.23,0,0,0,.26-.71l.13-1.3a1,1,0,0,0-.1-.7.62.62,0,0,0-.55-.22.74.74,0,0,0-.59.22,1.26,1.26,0,0,0-.25.71L161.32,51a1.11,1.11,0,0,0,.1.71A.63.63,0,0,0,162,51.87Z"/><path class="cls-2" d="M165.32,52.63l.49-4.65h1.09l-.07.69h.2a1.31,1.31,0,0,1,.51-.56,1.42,1.42,0,0,1,.75-.21.94.94,0,0,1,.84.41,1.55,1.55,0,0,1,.21,1.09L169,52.63h-1.09l.32-3.06a.94.94,0,0,0-.08-.59.43.43,0,0,0-.39-.2.91.91,0,0,0-.53.18,1.82,1.82,0,0,0-.48.48l-.33,3.19Z"/><path class="cls-2" d="M177.39,52.63,176,47.71l-.52,4.92h-.94l.65-6.2h1.48l1.39,4.78.51-4.78h.94l-.65,6.2Z"/><path class="cls-2" d="M184.26,51.59a1.75,1.75,0,0,1-.74.84,2.56,2.56,0,0,1-1.24.27,1.75,1.75,0,0,1-1.3-.45,1.47,1.47,0,0,1-.35-1.25l.14-1.4a1.83,1.83,0,0,1,.63-1.25,2.12,2.12,0,0,1,1.4-.45,1.7,1.7,0,0,1,1.29.46,1.49,1.49,0,0,1,.36,1.28l-.09.87h-2.59l-.05.5a1,1,0,0,0,.11.72.73.73,0,0,0,.6.21,1,1,0,0,0,.59-.14,1.11,1.11,0,0,0,.35-.48Zm-2.39-2,0,.25h1.5v-.21a1.13,1.13,0,0,0-.09-.76.62.62,0,0,0-.55-.23.74.74,0,0,0-.59.22A1.25,1.25,0,0,0,181.87,49.61Z"/><path class="cls-2" d="M188.94,52.63l-.39-3-1,3h-1.2L185.86,48h1l.3,3.66,1-2.89h1l.41,2.84L190.61,48h.93l-1.47,4.65Z"/><path class="cls-2" d="M194.88,52.63l.65-6.2h3.72l-.1.85h-2.62l-.17,1.57h2.31l-.09.85h-2.3l-.22,2.07h2.63l-.09.86Z"/><path class="cls-2" d="M200.14,52.63l.49-4.65h1.09l-.07.69h.19a1.2,1.2,0,0,1,.47-.58,1.18,1.18,0,0,1,.63-.19.82.82,0,0,1,.74.34,1.48,1.48,0,0,1,.16.94l-.09.79h-1l.07-.63a.72.72,0,0,0-.07-.41.33.33,0,0,0-.31-.15A.77.77,0,0,0,202,49a1.5,1.5,0,0,0-.43.47l-.33,3.2Z"/><path class="cls-2" d="M206.19,52.7a1.31,1.31,0,0,1-1-.35,1.16,1.16,0,0,1-.28-1,1.45,1.45,0,0,1,.49-1,1.61,1.61,0,0,1,1.06-.34h1.18l.07-.66a.7.7,0,0,0-.13-.53.68.68,0,0,0-.53-.19.86.86,0,0,0-.57.17,1.39,1.39,0,0,0-.34.63l-.92-.18a1.84,1.84,0,0,1,.71-1.06,2.3,2.3,0,0,1,1.28-.33,2,2,0,0,1,1.24.34,1.09,1.09,0,0,1,.35,1.08l-.2,2c0,.25,0,.41.14.47a.87.87,0,0,0,.58,0l-.08.83a1.66,1.66,0,0,1-.93,0,.68.68,0,0,1-.4-.65h-.18a1.61,1.61,0,0,1-.65.55A2,2,0,0,1,206.19,52.7Zm.33-.76a1.42,1.42,0,0,0,.53-.1,1.13,1.13,0,0,0,.46-.34l.08-.8h-1a.63.63,0,0,0-.41.13.72.72,0,0,0-.19.48.62.62,0,0,0,.1.47A.51.51,0,0,0,206.52,51.94Z"/><path class="cls-5" d="M67.75,41.66v-17H72A3.79,3.79,0,0,1,75,25.75a4.46,4.46,0,0,1,1,3.13v2.44a4.3,4.3,0,0,1-1,3.06,3.89,3.89,0,0,1-2.93,1H69.09v6.24Zm1.34-7.43H72a2.57,2.57,0,0,0,2-.69,3.29,3.29,0,0,0,.62-2.22V28.94A3.57,3.57,0,0,0,74,26.61a2.51,2.51,0,0,0-2-.72H69.09Z"/><path class="cls-5" d="M80.23,46a6.07,6.07,0,0,1-.71-.05c-.24,0-.51-.08-.79-.14l.19-1.21.7.14a4.83,4.83,0,0,0,.68,0,1.75,1.75,0,0,0,1.33-.51,4.33,4.33,0,0,0,.81-1.8l.19-.81h-.55L78.66,28.92h1.43L83,40.34l2.85-11.42H87.2L83.53,43.08a4.69,4.69,0,0,1-1.32,2.29A3,3,0,0,1,80.23,46Z"/><path class="cls-5" d="M95.22,41.87a4.55,4.55,0,0,1-3.6-1.4,6.14,6.14,0,0,1-1.22-4.12V30.07a6.26,6.26,0,0,1,1.22-4.18,4.51,4.51,0,0,1,3.62-1.43,4.42,4.42,0,0,1,3.48,1.36,6.27,6.27,0,0,1,1.32,4L98.7,30a6.09,6.09,0,0,0-1-3.32,3,3,0,0,0-2.52-1,3.16,3.16,0,0,0-2.66,1,5.69,5.69,0,0,0-.82,3.47v6a5.51,5.51,0,0,0,.82,3.41,4,4,0,0,0,5.26.06,5.45,5.45,0,0,0,.88-3.25l1.34.12a5.86,5.86,0,0,1-1.26,4A4.59,4.59,0,0,1,95.22,41.87Z"/><path class="cls-5" d="M107.51,41.87a3.53,3.53,0,0,1-2.85-1.19,5,5,0,0,1-1-3.37v-4a5.19,5.19,0,0,1,1-3.44,4,4,0,0,1,5.7,0,5.3,5.3,0,0,1,1,3.44v4a5.13,5.13,0,0,1-1,3.37A3.53,3.53,0,0,1,107.51,41.87Zm0-1.21a2.2,2.2,0,0,0,1.89-.82,4.16,4.16,0,0,0,.62-2.51v-4a4.41,4.41,0,0,0-.62-2.6,2.19,2.19,0,0,0-1.89-.84,2.22,2.22,0,0,0-1.9.84,4.33,4.33,0,0,0-.62,2.6v4a4.09,4.09,0,0,0,.62,2.51A2.23,2.23,0,0,0,107.51,40.66Z"/><path class="cls-5" d="M115.3,41.66V28.92h1.34V30.6h.3a3.12,3.12,0,0,1,1.24-1.38,3.27,3.27,0,0,1,1.73-.51,2.78,2.78,0,0,1,2.25,1,4.21,4.21,0,0,1,.85,2.74v9.17h-1.34v-8.9a3.41,3.41,0,0,0-.54-2.06,1.79,1.79,0,0,0-1.52-.72,3.05,3.05,0,0,0-1.61.46,4.1,4.1,0,0,0-1.36,1.41v9.81Z"/><path class="cls-5" d="M135.28,41.87a3.8,3.8,0,0,1-3.13-1.27A6.78,6.78,0,0,1,131,36.54l1.34-.13a6.71,6.71,0,0,0,.77,3.36,2.92,2.92,0,0,0,4.25-.06,5.63,5.63,0,0,0,.65-3.1V25.89H134.6V24.68h4.77V36.56a6.4,6.4,0,0,1-1,4A3.61,3.61,0,0,1,135.28,41.87Z"/><path class="cls-5" d="M143.79,41.66v-17h4.27A3.81,3.81,0,0,1,151,25.75a4.45,4.45,0,0,1,1,3.13v2.44a4.3,4.3,0,0,1-1,3.06,3.91,3.91,0,0,1-2.93,1h-2.93v6.24Zm1.34-7.43H148a2.58,2.58,0,0,0,2-.69,3.29,3.29,0,0,0,.62-2.22V28.94a3.57,3.57,0,0,0-.62-2.33,2.52,2.52,0,0,0-2-.72h-2.88Z"/><path class="cls-5" d="M161.09,41.66V38.05a5.67,5.67,0,0,1,.67-3,3.41,3.41,0,0,1,2.15-1.45l3.12-.85a2.33,2.33,0,0,0,1.43-1,3.73,3.73,0,0,0,.42-1.94V29a3.57,3.57,0,0,0-.74-2.5,3.17,3.17,0,0,0-2.4-.79,2.84,2.84,0,0,0-2.33.85,5.88,5.88,0,0,0-.81,3.06l-1.36-.13a6,6,0,0,1,1.2-3.79,4.17,4.17,0,0,1,3.28-1.2,4.71,4.71,0,0,1,3.36,1.1,4.27,4.27,0,0,1,1.16,3.25V30a4.57,4.57,0,0,1-.68,2.64,3.67,3.67,0,0,1-2.19,1.4l-3,.8a2.39,2.39,0,0,0-1.46,1,4.24,4.24,0,0,0-.45,2.16v2.44h8v1.21Z"/><path class="cls-6" d="M178.73,41.93a4,4,0,0,1-3.57-1.82,9.71,9.71,0,0,1-1.2-5.33v-3a9.82,9.82,0,0,1,1.21-5.4,4.39,4.39,0,0,1,7.13,0,9.91,9.91,0,0,1,1.2,5.4v3a9.71,9.71,0,0,1-1.2,5.33A4,4,0,0,1,178.73,41.93Z"/><path class="cls-5" d="M188.39,41.66V40.45h3.5v-13h-.21a4,4,0,0,1-1.3,2.08,3.5,3.5,0,0,1-2.16.87l-.15-1.4a3.5,3.5,0,0,0,2.56-1.22,5.72,5.72,0,0,0,1.3-3.06h1.3V40.45h3.18v1.21Z"/><path class="cls-5" d="M205,41.87a4.72,4.72,0,0,1-3.07-.85,4.41,4.41,0,0,1-1.35-2.78l1.4-.3a3.68,3.68,0,0,0,.87,2.11,3.13,3.13,0,0,0,2.19.61,2.89,2.89,0,0,0,2.53-1.06,6.1,6.1,0,0,0,.76-3.48V33.21h-.19a3,3,0,0,1-1.31,1.28,4.67,4.67,0,0,1-2.13.44,4.2,4.2,0,0,1-3.22-1.21,5,5,0,0,1-1.11-3.48v-.6a5.6,5.6,0,0,1,1.19-3.84A4.4,4.4,0,0,1,205,24.46a4.25,4.25,0,0,1,3.47,1.43,6.75,6.75,0,0,1,1.18,4.39v5.84a6.66,6.66,0,0,1-1.19,4.33A4.26,4.26,0,0,1,205,41.87Zm0-8.19a3.24,3.24,0,0,0,2.48-.86,3.83,3.83,0,0,0,.81-2.69V29.6a4.52,4.52,0,0,0-.81-3,3.7,3.7,0,0,0-5,0,4.58,4.58,0,0,0-.8,3v.53a3.88,3.88,0,0,0,.8,2.69A3.25,3.25,0,0,0,205,33.68Z"/><path class="cls-3" d="M178.66,29.62a1.63,1.63,0,0,1,1.53,1.08l-.34.07A1.86,1.86,0,0,0,178.66,32a1.84,1.84,0,0,0-1.18-1.19l-.35-.07A1.63,1.63,0,0,1,178.66,29.62ZM175.35,32a1.65,1.65,0,0,1,1.5-1.13,2.21,2.21,0,0,0,0,.35,1.86,1.86,0,0,0,.76,1.5,1.83,1.83,0,0,0-1.49.76,1.54,1.54,0,0,0-.17.31A1.64,1.64,0,0,1,175.35,32Zm1.27,3.89a1.64,1.64,0,0,1-.61-1.78,2.3,2.3,0,0,0,.32.15,2,2,0,0,0,.58.09A1.82,1.82,0,0,0,178,34a1.84,1.84,0,0,0,.26,1.66,1.51,1.51,0,0,0,.24.26A1.64,1.64,0,0,1,176.62,35.92Zm4.09,0a1.64,1.64,0,0,1-1.87,0,1.47,1.47,0,0,0,.23-.26,1.84,1.84,0,0,0,.26-1.66,1.83,1.83,0,0,0,1.09.36,1.66,1.66,0,0,0,.89-.24A1.64,1.64,0,0,1,180.71,35.92Zm.71-2.1a1.57,1.57,0,0,0-.18-.31,1.83,1.83,0,0,0-1.49-.76,1.86,1.86,0,0,0,.76-1.5,2.21,2.21,0,0,0,0-.35,1.63,1.63,0,0,1,.95,2.92Z"/></g></g></svg>