<!--?xml version="1.0" encoding="utf-8"?-->
<!-- Generator: Adobe Illustrator 15.1.0, SVG Export Plug-In . SVG Version: 6.00 Build 0)  -->

<svg version="1.1" id="_x32_" xmlns="http://www.w3.org/2000/svg" xmlns:xlink="http://www.w3.org/1999/xlink" x="0px" y="0px" width="512px" height="512px" viewBox="0 0 512 512" style="width: 512px; height: 512px; opacity: 1;" xml:space="preserve">
<style type="text/css">

	.st0{fill:#4B4B4B;}

</style>
<g>
	<path class="st0" d="M512,224.438c0-63.766-51.703-115.469-115.484-115.469c-8.766,0-17.328,1-25.531,2.859
		C365.656,52.984,316.219,6.875,256,6.875S146.344,52.984,141.016,111.828c-8.203-1.859-16.766-2.859-25.531-2.859
		C51.703,108.969,0,160.672,0,224.438c0,47.594,28.797,88.469,69.906,106.141c-10.297,17.281-16.234,37.484-16.234,59.063
		c0,63.766,51.703,115.484,115.484,115.484c34.625,0,65.688-15.266,86.844-39.406c21.156,24.141,52.219,39.406,86.844,39.406
		c63.781,0,115.484-51.719,115.484-115.484c0-21.578-5.938-41.781-16.234-59.063C483.203,312.906,512,272.031,512,224.438z
		 M346.531,287.641c-8.219,0-15.234-4.953-18.313-12h-52.906l37.406,37.391c7.156-2.797,15.625-1.313,21.438,4.469
		c7.813,7.813,7.813,20.469,0,28.281s-20.469,7.813-28.281,0c-5.813-5.781-7.281-14.25-4.469-21.438L264,286.969v52.875
		c7.063,3.094,12,10.125,12,18.313c0,11.047-8.938,20-20,20c-11.031,0-20-8.953-20-20c0-8.188,4.938-15.219,12-18.313v-52.891
		l-37.406,37.391c2.813,7.188,1.344,15.656-4.438,21.453c-7.813,7.797-20.5,7.797-28.313-0.016c-7.781-7.813-7.797-20.469,0-28.281
		c5.813-5.781,14.281-7.266,21.438-4.469l37.406-37.391h-52.875c-3.094,7.063-10.125,12.016-18.313,12.016
		c-11.063-0.016-20-8.969-20.016-20.016c0.016-11.047,8.953-20,20-20c8.203,0,15.234,4.953,18.328,12h52.875l-37.406-37.391
		c-7.156,2.813-15.625,1.328-21.438-4.469c-7.797-7.813-7.797-20.469,0-28.281c7.813-7.813,20.5-7.813,28.297,0
		c5.797,5.781,7.266,14.25,4.453,21.438L248,248.344v-52.906c-7.063-3.094-12-10.125-12-18.313c0-11.047,8.969-20,20-20
		c11.063,0,20,8.953,20,20c0,8.188-4.938,15.219-12,18.313v52.891l37.406-37.391c-2.813-7.188-1.344-15.656,4.469-21.438
		c7.813-7.813,20.469-7.813,28.281,0s7.813,20.469,0,28.281c-5.813,5.797-14.281,7.281-21.438,4.469l-37.406,37.391h52.906
		c3.094-7.047,10.094-12,18.297-12c11.047,0,20.016,8.953,20.016,20S357.563,287.656,346.531,287.641z" style="fill: rgb(0, 0, 0);"></path>
</g>
</svg>
