<!-- Generated by IcoMoon.io -->
<svg version="1.1" xmlns="http://www.w3.org/2000/svg" width="32" height="32" viewBox="0 0 32 32">
<title>symbol_sns_twitter</title>
<path d="M32.019 6.089c-1.176 0.527-2.447 0.875-3.774 1.035 1.355-0.809 2.4-2.099 2.889-3.633-1.271 0.753-2.673 1.299-4.169 1.591-1.205-1.271-2.908-2.071-4.8-2.071-4.245 0-7.36 3.953-6.4 8.066-5.459-0.273-10.296-2.889-13.534-6.861-1.722 2.955-0.894 6.814 2.033 8.772-1.073-0.038-2.089-0.329-2.974-0.819-0.075 3.040 2.108 5.892 5.271 6.522-0.922 0.254-1.939 0.311-2.965 0.113 0.838 2.607 3.256 4.508 6.136 4.565-2.767 2.155-6.249 3.115-9.732 2.711 2.908 1.864 6.362 2.955 10.071 2.955 12.198 0 19.087-10.296 18.673-19.539 1.28-0.932 2.391-2.089 3.275-3.407z" fill="#55acee"></path>
</svg>
