<!--?xml version="1.0" encoding="utf-8"?-->
<!-- Generator: Adobe Illustrator 18.1.1, SVG Export Plug-In . SVG Version: 6.00 Build 0)  -->

<svg version="1.1" id="_x32_" xmlns="http://www.w3.org/2000/svg" xmlns:xlink="http://www.w3.org/1999/xlink" x="0px" y="0px" viewBox="0 0 512 512" style="width: 512px; height: 512px; opacity: 1;" xml:space="preserve">
<style type="text/css">
	.st0{fill:#4B4B4B;}
</style>
<g>
	<path class="st0" d="M284.811,248.432c-14.806,10.36-32.797,16.458-52.194,16.458c-19.406,0-37.398-6.097-52.203-16.458
		c-25.887,11.109-41.796,30.661-51.5,47.922c-12.88,22.902-2.784,55.289,19.497,55.289c22.272,0,84.206,0,84.206,0
		s61.934,0,84.206,0c22.282,0,32.377-32.387,19.488-55.289C326.617,279.093,310.707,259.541,284.811,248.432z" style="fill: rgb(0, 0, 0);"></path>
	<path class="st0" d="M232.617,243.228c38.036,0,68.862-30.834,68.862-68.861v-16.495c0-38.036-30.826-68.862-68.862-68.862
		s-68.862,30.826-68.862,68.862v16.495C163.755,212.394,194.581,243.228,232.617,243.228z" style="fill: rgb(0, 0, 0);"></path>
	<path class="st0" d="M497.329,441.927l-75.836-73.882c65.265-90.806,57.141-218.443-24.454-300.037
		c-90.669-90.678-238.177-90.678-328.845,0c-90.678,90.668-90.678,238.195-0.009,328.862c81.613,81.605,209.25,89.72,300.074,24.427
		l73.855,75.826c15.645,18.886,38.748,20,56.602,2.137C516.598,481.423,516.205,457.563,497.329,441.927z M100.471,364.577
		c-72.969-72.978-72.969-191.304,0-264.265c72.978-72.978,191.295-72.978,264.274,0c72.97,72.97,72.979,191.287,0.009,264.273
		C291.785,437.545,173.449,437.545,100.471,364.577z" style="fill: rgb(0, 0, 0);"></path>
</g>
</svg>
