<svg xmlns="http://www.w3.org/2000/svg" viewBox="0 0 125.05 129.72"><defs><style>.cls-1{fill:#c8a177;}.cls-2{fill:#9c8cbe;}.cls-3{fill:#eba4c3;}.cls-4{fill:#5970a5;}.cls-5{fill:#4f455a;}.cls-6{fill:#fff;stroke:#4f455a;stroke-miterlimit:10;stroke-width:1.07px;}</style></defs><title>square_color</title><g id="レイヤー_2" data-name="レイヤー 2"><g id="レイヤー_1-2" data-name="レイヤー 1"><path class="cls-1" d="M85,76.39c0-.81,0-1.42,0-2q0-26.53,0-53.06c0-2.27-.25-1.5,1.14-3.36q1.31-1.74,2.64-3.46c.18-.23.39-.43.56-.62a.85.85,0,0,1,.23.09.25.25,0,0,1,0,.15q0,33.19,0,66.39a1.68,1.68,0,0,1-.12.45,1.66,1.66,0,0,1-.44.13H38.73a1.91,1.91,0,0,1-.46-.14,1.67,1.67,0,0,1,.14-.43C39.28,79.35,40.17,78.2,41,77a1.4,1.4,0,0,1,1.32-.62c.42,0,.83,0,1.24,0H83Z"/><path class="cls-2" d="M75.69,87.43c.53-1.47,1-2.78,1.48-4.13a39.26,39.26,0,0,1,4.74-.1,4.86,4.86,0,0,1-.13,1c-1,2.83-2,5.66-3,8.49a5.51,5.51,0,0,1-.25.57,2.73,2.73,0,0,1-1.5-.34l-23.14-8c-1.08-.37-2.15-.73-3.22-1.11-.23-.08-.43-.22-.95-.48.51-.06.69-.1.86-.1,3.93,0,7.86,0,11.8,0a6.1,6.1,0,0,1,2.11.42c3.07,1.07,6.14,2.15,9.22,3.21C74.34,87,74.93,87.19,75.69,87.43Z"/><path class="cls-2" d="M91.84,54.13V52.89c0-3.56,0-7.12,0-10.68a7,7,0,0,1,.39-2.43c1.54-4.38,3.07-8.76,4.56-13.16a3.51,3.51,0,0,1,1.55-2c1.41-.85,2.76-1.81,4.14-2.72.25-.16.52-.3.8-.45,0,.18.13.29.1.36q-5.49,16-11,31.89a2.84,2.84,0,0,1-.28.51Z"/><path class="cls-2" d="M91.92,19.42a43.12,43.12,0,0,1,0-4.83A37.4,37.4,0,0,1,96.21,16c1.37.45,2.73.95,4.23,1.48a4.38,4.38,0,0,1-.55.57c-1.36.92-2.74,1.83-4.12,2.75Z"/><path class="cls-2" d="M62.53,28.79c-6.91.11-8.4,3.7-8.43,5.77L54,38.46,62,38.33v.79l-11.85.2c-2.62,0-5.67,2.16-5.76,8s2.88,7.9,5.5,7.86l4.69-.08.08-4.77a3.32,3.32,0,0,1,3.23-3.23L67.4,47a2.43,2.43,0,0,0,2.42-2.42L70,34.3C70,31.52,67.46,28.7,62.53,28.79Zm-3.61,6.14A1.11,1.11,0,1,1,60,33.83,1.1,1.1,0,0,1,58.92,34.93Z"/><path class="cls-3" d="M75.83,40l-4.7.08-.07,4.76a3.32,3.32,0,0,1-3.23,3.23l-9.54.16a2.43,2.43,0,0,0-2.42,2.42L55.7,60.89c-.05,2.78,2.53,5.59,7.46,5.51,6.91-.11,8.4-3.71,8.43-5.77l.06-3.9-7.94.13v-.8l11.85-.19c2.62,0,5.67-2.16,5.76-8S78.45,39.94,75.83,40ZM66.76,60.25a1.11,1.11,0,1,1-1.1,1.11A1.11,1.11,0,0,1,66.76,60.25Z"/><path class="cls-4" d="M39.7,16.9c0,.8,0,1.42,0,2q.06,26.52.12,53.05c0,2.27.26,1.5-1.13,3.37-.86,1.16-1.75,2.31-2.63,3.46-.18.23-.39.44-.56.63-.14,0-.2-.06-.23-.1a.22.22,0,0,1-.05-.14Q35.1,46,35,12.81a2,2,0,0,1,.12-.45,1.71,1.71,0,0,1,.44-.14L86,12.09a1.68,1.68,0,0,1,.46.14,1.36,1.36,0,0,1-.14.43c-.86,1.17-1.75,2.31-2.6,3.48a1.41,1.41,0,0,1-1.33.62c-.41,0-.82,0-1.24,0l-39.4.1C41.12,16.86,40.5,16.88,39.7,16.9Z"/><path class="cls-3" d="M49,5.84c-.52,1.47-1,2.77-1.47,4.13a39.26,39.26,0,0,1-4.74.1,4.85,4.85,0,0,1,.13-1c1-2.84,1.94-5.67,2.92-8.5.07-.19.17-.37.26-.58A2.78,2.78,0,0,1,47.6.36l23.17,8L74,9.43c.23.08.43.22,1,.48l-.86.1c-3.93,0-7.86,0-11.79,0a6.11,6.11,0,0,1-2.12-.42L50.94,6.44C50.36,6.24,49.77,6.07,49,5.84Z"/><path class="cls-3" d="M32.94,39.18v1.23c0,3.56,0,7.12,0,10.68a7.14,7.14,0,0,1-.38,2.43c-1.53,4.38-3.06,8.77-4.53,13.17a3.51,3.51,0,0,1-1.55,2c-1.41.87-2.75,1.82-4.13,2.74-.25.16-.52.3-.79.45-.06-.18-.13-.29-.11-.37q5.46-16,10.93-31.91a2.84,2.84,0,0,1,.28-.51Z"/><path class="cls-3" d="M33,73.88A45.62,45.62,0,0,1,33,78.71a37.4,37.4,0,0,1-4.34-1.38c-1.38-.45-2.73-.94-4.23-1.47a3.82,3.82,0,0,1,.54-.57c1.36-.93,2.74-1.84,4.11-2.76Z"/><path class="cls-2" d="M24.66,128.16l.64-6h2a1.69,1.69,0,0,1,1.27.41,1.46,1.46,0,0,1,.32,1.23l-.08.77a1.73,1.73,0,0,1-.58,1.21,2,2,0,0,1-1.34.41h-.95l-.21,2ZM26,125.33h.81a1,1,0,0,0,.67-.2,1,1,0,0,0,.27-.67l.06-.63a.85.85,0,0,0-.13-.68.82.82,0,0,0-.62-.2h-.81Z"/><path class="cls-2" d="M30.14,129.72a3.24,3.24,0,0,1-.43,0l-.5-.06.17-.81.41.07a1.94,1.94,0,0,0,.33,0,.91.91,0,0,0,.65-.2,1.59,1.59,0,0,0,.35-.59l0-.08h-.66l-.7-4.42h1.06l.53,3.78,1.29-3.78h1L32,128.36a2.21,2.21,0,0,1-.73,1A1.86,1.86,0,0,1,30.14,129.72Z"/><path class="cls-2" d="M36.42,128.23a1.41,1.41,0,0,1-1.09-.38,1.39,1.39,0,0,1-.27-1.11l.24-2.3h-.75l.08-.81h.75l.16-1.5H36.6l-.16,1.5h1.3l-.08.81h-1.3l-.24,2.23a.77.77,0,0,0,.1.56.52.52,0,0,0,.42.18,1.13,1.13,0,0,0,.3,0,1.75,1.75,0,0,0,.35-.11l0,.79a3,3,0,0,1-.42.13A2.63,2.63,0,0,1,36.42,128.23Z"/><path class="cls-2" d="M38.78,128.16l.63-6h1.06l-.22,2.18h.18a1.42,1.42,0,0,1,.51-.55,1.31,1.31,0,0,1,.72-.2,1,1,0,0,1,.82.39,1.56,1.56,0,0,1,.21,1.06l-.33,3.15H41.29l.31-3a.85.85,0,0,0-.08-.58.41.41,0,0,0-.38-.19.87.87,0,0,0-.51.17,1.9,1.9,0,0,0-.47.47l-.32,3.1Z"/><path class="cls-2" d="M45.68,128.23a1.71,1.71,0,0,1-1.25-.43,1.41,1.41,0,0,1-.36-1.24l.13-1.3a1.79,1.79,0,0,1,.63-1.26,2,2,0,0,1,1.35-.44,1.66,1.66,0,0,1,1.25.44,1.44,1.44,0,0,1,.35,1.26l-.13,1.3A1.75,1.75,0,0,1,47,127.8,2.08,2.08,0,0,1,45.68,128.23Zm.08-.81a.75.75,0,0,0,.58-.21,1.16,1.16,0,0,0,.25-.68l.13-1.27a1,1,0,0,0-.1-.68.62.62,0,0,0-.53-.22.75.75,0,0,0-.58.22,1.22,1.22,0,0,0-.24.69l-.13,1.26a1,1,0,0,0,.09.68A.61.61,0,0,0,45.76,127.42Z"/><path class="cls-2" d="M49,128.16l.47-4.53h1.07l-.07.68h.19a1.26,1.26,0,0,1,.5-.55,1.39,1.39,0,0,1,.72-.2.93.93,0,0,1,.82.39,1.51,1.51,0,0,1,.21,1.07l-.33,3.14H51.55l.3-3a.85.85,0,0,0-.07-.58.41.41,0,0,0-.38-.19.87.87,0,0,0-.52.17,1.87,1.87,0,0,0-.46.47l-.33,3.1Z"/><path class="cls-2" d="M60.76,128.16l-1.34-4.78-.51,4.78H58l.63-6h1.44l1.36,4.65.49-4.65h.92l-.63,6Z"/><path class="cls-2" d="M67.45,127.14a1.74,1.74,0,0,1-.72.83,2.54,2.54,0,0,1-1.2.26,1.68,1.68,0,0,1-1.27-.44,1.43,1.43,0,0,1-.34-1.22l.14-1.35a1.76,1.76,0,0,1,.61-1.23,2.05,2.05,0,0,1,1.36-.43,1.71,1.71,0,0,1,1.26.44,1.47,1.47,0,0,1,.34,1.25l-.08.85H65l0,.48a1,1,0,0,0,.11.7.69.69,0,0,0,.58.21.92.92,0,0,0,.57-.14,1,1,0,0,0,.34-.46Zm-2.33-1.92,0,.24h1.45l0-.2a1.14,1.14,0,0,0-.09-.74.6.6,0,0,0-.54-.22.73.73,0,0,0-.57.21A1.28,1.28,0,0,0,65.12,125.22Z"/><path class="cls-2" d="M72,128.16l-.38-2.88-1,2.88H69.49L69,123.63H70l.3,3.57.95-2.81h1l.4,2.76,1-3.52h.91l-1.43,4.53Z"/><path class="cls-2" d="M77.78,128.16l.63-6H82l-.09.82H79.38l-.16,1.53h2.24l-.08.83H79.14l-.21,2h2.56l-.09.83Z"/><path class="cls-2" d="M82.9,128.16l.47-4.53h1.06l-.06.68h.18a1.16,1.16,0,0,1,.46-.57,1.17,1.17,0,0,1,.62-.18.79.79,0,0,1,.71.33,1.39,1.39,0,0,1,.15.91l-.08.77h-1l.07-.61a.62.62,0,0,0-.06-.4.34.34,0,0,0-.31-.14.75.75,0,0,0-.45.17,2,2,0,0,0-.41.45L84,128.16Z"/><path class="cls-2" d="M88.78,128.23a1.29,1.29,0,0,1-1-.34,1.14,1.14,0,0,1-.27-1,1.42,1.42,0,0,1,.47-1,1.6,1.6,0,0,1,1-.33h1.15l.06-.65a.66.66,0,0,0-.12-.5.64.64,0,0,0-.52-.19.91.91,0,0,0-.56.16,1.52,1.52,0,0,0-.33.62l-.89-.18a1.82,1.82,0,0,1,.69-1,2.26,2.26,0,0,1,1.24-.32,1.92,1.92,0,0,1,1.21.33,1.08,1.08,0,0,1,.35,1l-.21,1.93c0,.24,0,.39.14.46a1,1,0,0,0,.57,0l-.08.8a1.64,1.64,0,0,1-.9,0,.66.66,0,0,1-.4-.63H90.3a1.57,1.57,0,0,1-.63.53A1.91,1.91,0,0,1,88.78,128.23Zm.32-.74a1.34,1.34,0,0,0,.52-.1,1,1,0,0,0,.44-.33l.09-.78h-1a.56.56,0,0,0-.39.13.64.64,0,0,0-.19.46.62.62,0,0,0,.09.46A.52.52,0,0,0,89.1,127.49Z"/><path class="cls-5" d="M0,114.32v-15H3.76a3.35,3.35,0,0,1,2.58,1,3.89,3.89,0,0,1,.88,2.76v2.15a3.73,3.73,0,0,1-.88,2.69,3.41,3.41,0,0,1-2.58.92H1.18v5.5Zm1.18-6.55H3.72a2.26,2.26,0,0,0,1.78-.61,2.88,2.88,0,0,0,.54-2v-2.1a3.15,3.15,0,0,0-.54-2,2.2,2.2,0,0,0-1.78-.64H1.18Z"/><path class="cls-5" d="M11,118.17a3.48,3.48,0,0,1-.63,0l-.7-.12.17-1.06.62.12a3.7,3.7,0,0,0,.6,0,1.51,1.51,0,0,0,1.16-.44,3.58,3.58,0,0,0,.72-1.59l.17-.72h-.48l-3-11.26h1.25l2.56,10.07,2.51-10.07h1.19L13.9,115.57a4.2,4.2,0,0,1-1.16,2A2.65,2.65,0,0,1,11,118.17Z"/><path class="cls-5" d="M24.21,114.5A4,4,0,0,1,21,113.27,5.41,5.41,0,0,1,20,109.64V104.1A5.53,5.53,0,0,1,21,100.42a4,4,0,0,1,3.19-1.25,3.88,3.88,0,0,1,3.07,1.19,5.56,5.56,0,0,1,1.16,3.56l-1.18.11a5.36,5.36,0,0,0-.85-2.93,2.67,2.67,0,0,0-2.21-.87,2.78,2.78,0,0,0-2.35.93,5,5,0,0,0-.72,3.06v5.31a4.86,4.86,0,0,0,.72,3,2.8,2.8,0,0,0,2.35.91,2.83,2.83,0,0,0,2.29-.85,4.93,4.93,0,0,0,.77-2.87l1.18.11a5.12,5.12,0,0,1-1.11,3.51A4.07,4.07,0,0,1,24.21,114.5Z"/><path class="cls-5" d="M35,114.5a3.11,3.11,0,0,1-2.52-1,4.49,4.49,0,0,1-.89-3V107a4.62,4.62,0,0,1,.89-3A3.09,3.09,0,0,1,35,102.91a3,3,0,0,1,2.5,1.06,4.62,4.62,0,0,1,.88,3v3.48a4.49,4.49,0,0,1-.88,3A3.06,3.06,0,0,1,35,114.5Zm0-1.06a2,2,0,0,0,1.66-.72,3.7,3.7,0,0,0,.54-2.22V107a3.91,3.91,0,0,0-.54-2.29A1.94,1.94,0,0,0,35,104a2,2,0,0,0-1.68.74,3.83,3.83,0,0,0-.55,2.29v3.5a3.63,3.63,0,0,0,.55,2.22A2,2,0,0,0,35,113.44Z"/><path class="cls-5" d="M41.9,114.32V103.09h1.18v1.48h.26a2.68,2.68,0,0,1,1.1-1.21,2.88,2.88,0,0,1,1.52-.45,2.43,2.43,0,0,1,2,.91,3.7,3.7,0,0,1,.75,2.42v8.08H47.51v-7.84a3,3,0,0,0-.47-1.81A1.58,1.58,0,0,0,45.7,104a2.7,2.7,0,0,0-1.42.4,3.61,3.61,0,0,0-1.2,1.25v8.64Z"/><path class="cls-5" d="M59.5,114.5a3.35,3.35,0,0,1-2.76-1.12,6,6,0,0,1-1-3.57l1.18-.11a6,6,0,0,0,.68,3,2.56,2.56,0,0,0,3.74,0,5,5,0,0,0,.58-2.74v-9.45h-3V99.35h4.2v10.48a5.71,5.71,0,0,1-.9,3.51A3.25,3.25,0,0,1,59.5,114.5Z"/><path class="cls-5" d="M67,114.32v-15h3.76a3.38,3.38,0,0,1,2.59,1,3.94,3.94,0,0,1,.88,2.76v2.15a3.77,3.77,0,0,1-.88,2.69,3.44,3.44,0,0,1-2.59.92H68.18v5.5Zm1.18-6.55h2.55a2.25,2.25,0,0,0,1.77-.61,2.82,2.82,0,0,0,.55-2v-2.1a3.08,3.08,0,0,0-.55-2,2.19,2.19,0,0,0-1.77-.64H68.18Z"/><path class="cls-5" d="M82.25,114.32v-3.18a5,5,0,0,1,.59-2.65,3,3,0,0,1,1.9-1.28l2.75-.75a2,2,0,0,0,1.25-.84,3.22,3.22,0,0,0,.38-1.7v-.79a3.14,3.14,0,0,0-.66-2.21,2.8,2.8,0,0,0-2.11-.69,2.45,2.45,0,0,0-2,.75,5.15,5.15,0,0,0-.72,2.69l-1.2-.11a5.38,5.38,0,0,1,1.06-3.34,3.69,3.69,0,0,1,2.89-1,4.17,4.17,0,0,1,3,1,3.76,3.76,0,0,1,1,2.87v1a4,4,0,0,1-.6,2.33,3.21,3.21,0,0,1-1.92,1.22l-2.68.71a2.13,2.13,0,0,0-1.28.91,3.68,3.68,0,0,0-.4,1.9v2.15h7v1.07Z"/><path class="cls-6" d="M97.79,114.56a3.51,3.51,0,0,1-3.14-1.6,8.54,8.54,0,0,1-1.06-4.7v-2.61a8.58,8.58,0,0,1,1.07-4.76,3.87,3.87,0,0,1,6.28,0,8.76,8.76,0,0,1,1.06,4.76v2.61a8.63,8.63,0,0,1-1.06,4.7A3.53,3.53,0,0,1,97.79,114.56Z"/><path class="cls-5" d="M106.31,114.32v-1.07h3.08V101.77h-.18a3.53,3.53,0,0,1-1.15,1.83,3.17,3.17,0,0,1-1.9.77l-.13-1.24a3.09,3.09,0,0,0,2.25-1.07,5.06,5.06,0,0,0,1.15-2.71h1.14v13.9h2.81v1.07Z"/><path class="cls-5" d="M120.93,114.5a4.18,4.18,0,0,1-2.7-.74,3.92,3.92,0,0,1-1.19-2.45l1.24-.27a3.23,3.23,0,0,0,.76,1.87,2.82,2.82,0,0,0,1.93.53,2.54,2.54,0,0,0,2.23-.94,5.33,5.33,0,0,0,.67-3.06v-2.57h-.17a2.52,2.52,0,0,1-1.15,1.13,4.06,4.06,0,0,1-1.88.39,3.66,3.66,0,0,1-2.83-1.07,4.34,4.34,0,0,1-1-3.07v-.52a5,5,0,0,1,1-3.39,3.89,3.89,0,0,1,3-1.17,3.72,3.72,0,0,1,3.06,1.25,6,6,0,0,1,1,3.87v5.15a5.83,5.83,0,0,1-1,3.81A3.76,3.76,0,0,1,120.93,114.5Zm0-7.22a2.88,2.88,0,0,0,2.19-.75,3.41,3.41,0,0,0,.71-2.37v-.47a4,4,0,0,0-.71-2.62,3.29,3.29,0,0,0-4.39,0,4.1,4.1,0,0,0-.7,2.62v.47a3.46,3.46,0,0,0,.7,2.37A2.89,2.89,0,0,0,121,107.28Z"/><path class="cls-3" d="M97.73,103.71a1.44,1.44,0,0,1,1.35,1l-.3.07a1.6,1.6,0,0,0-1,1,1.59,1.59,0,0,0-1-1l-.3-.07A1.44,1.44,0,0,1,97.73,103.71Zm-2.91,2.12a1.44,1.44,0,0,1,1.32-1,1.63,1.63,0,0,0,0,.31,1.65,1.65,0,0,0,.66,1.32,1.61,1.61,0,0,0-1.31.67,1.17,1.17,0,0,0-.15.27A1.43,1.43,0,0,1,94.82,105.83Zm1.11,3.43a1.44,1.44,0,0,1-.53-1.56,1.69,1.69,0,0,0,.28.12,1.51,1.51,0,0,0,.51.08,1.59,1.59,0,0,0,1-.31,1.67,1.67,0,0,0,.23,1.46,2.4,2.4,0,0,0,.21.23A1.43,1.43,0,0,1,95.93,109.26Zm3.61,0a1.43,1.43,0,0,1-1.65,0,2.4,2.4,0,0,0,.21-.23,1.63,1.63,0,0,0,.22-1.46,1.64,1.64,0,0,0,1,.31,1.51,1.51,0,0,0,.51-.08,1.69,1.69,0,0,0,.28-.12A1.44,1.44,0,0,1,99.54,109.26Zm.62-1.85a1.17,1.17,0,0,0-.15-.27,1.62,1.62,0,0,0-1.32-.67,1.63,1.63,0,0,0,.64-1.63,1.43,1.43,0,0,1,.83,2.57Z"/></g></g></svg>